<svg id="レイヤー_1" data-name="レイヤー 1" xmlns="http://www.w3.org/2000/svg" viewBox="0 0 348 368"><title>b02</title><path d="M147.52,328.71,81.05,235A28.92,28.92,0,1,1,129,202.63l18.26,25.74V82.9l-18.1,67.56a1.46,1.46,0,0,1-.66.86,1.41,1.41,0,0,1-1.08.14l-8.21-2.2a1.4,1.4,0,0,1-1-1.73l30.8-115a22,22,0,0,0-14.2-12A21.84,21.84,0,0,0,108.06,36L63.24,203.25A1.42,1.42,0,0,1,62,204.3L53,205a1.35,1.35,0,0,1-1.2-.51,1.43,1.43,0,0,1-.29-.61L34.86,159l0-.1,0-.12A17.57,17.57,0,0,0,1.52,170.11L37.4,266.89l12.53,29.49a104.51,104.51,0,0,0,112,49.76A115.83,115.83,0,0,1,147.52,328.71Z" fill="#fcd550"/><path d="M180.41,38.25a32.91,32.91,0,0,1,16.83,4.6V37.69a33.08,33.08,0,0,1,9.42-23.13,21.8,21.8,0,0,0-41.58,1.78L157,46.63s0,.08,0,.12l-.47,1.76A33,33,0,0,1,180.41,38.25Z" fill="#fcd550"/><path d="M191.18,53.1a21.25,21.25,0,0,0-32,18.32V265.74l-21.62-30.48-18.26-25.75-.08-.11-.08-.12a17,17,0,0,0-28.26,19l66.38,93.58.08.11.08.12a103.9,103.9,0,0,0,190-58.1V107.69a17,17,0,0,0-26.9-13.84l-6.94,5v77.72H301.49l.19-118.85A21.25,21.25,0,0,0,269,39.74l-5.48,3.5v133.3H252.13V36.92l-1.08-4.36a21.26,21.26,0,0,0-41.9,5.13v5.16l-.1,21.85-.47,111.84H197.17V56.63Z" fill="#fcd550"/></svg>