<svg id="レイヤー_1" data-name="レイヤー 1" xmlns="http://www.w3.org/2000/svg" viewBox="0 0 372 354"><title>b01</title><path d="M102.75,262.87a28.92,28.92,0,1,1,37.92-43.67L165,239.34,124.35,87.74a33.14,33.14,0,0,1,40.78-40.57v-.43l-1.22-4.53a33,33,0,0,1,1.18-20.71,21.82,21.82,0,0,0-43.61,1V53.9a.49.49,0,0,1,0,.12V161.39a1.42,1.42,0,0,1-1.41,1.42h-8.51a1.43,1.43,0,0,1-1.42-1.42v-119A21.82,21.82,0,0,0,71.48,56.27V229.44a1.41,1.41,0,0,1-1,1.34l-8.51,3a1.4,1.4,0,0,1-1.28-.19,1.47,1.47,0,0,1-.45-.51L32.61,194l-.07-.11-.06-.08a17.58,17.58,0,0,0-29.2,19.59L63,297.59l19.74,25.25a104.43,104.43,0,0,0,117.8,20.64,115.42,115.42,0,0,1-9.32-7.3Z" fill="#fcd550"/><path d="M368.09,221.75,327.64,70.81a17.59,17.59,0,0,0-21.53-12.43,17.65,17.65,0,0,0-13,16.48l19.12,71.36a1.5,1.5,0,0,1-.14,1.08,1.46,1.46,0,0,1-.86.66l-8.94,2.39a1.41,1.41,0,0,1-1.74-1l-30-115a21.85,21.85,0,0,0-26.73-15.42,22,22,0,0,0-14.21,12l11.82,44.12,19.5,72.77,3,11.32a1.41,1.41,0,0,1-1,1.73l-2,.55-6.18,1.65a1.41,1.41,0,0,1-1.74-1l-22-82-14-52.47a21.93,21.93,0,0,0-26.63-15,21.85,21.85,0,0,0-15.43,26.73l1.6,6L210.8,173.4a1.43,1.43,0,0,1-1,1.74l-8.22,2.2a1.39,1.39,0,0,1-1.07-.14,1.42,1.42,0,0,1-.66-.86L176.47,89.08l-7.42-27.7a21,21,0,0,0-3.92-2.2,22,22,0,0,0-14.39-1.12A21.86,21.86,0,0,0,135.3,84.8l44.82,167.27a1.41,1.41,0,0,1-.57,1.54l-7.45,5.06a1.45,1.45,0,0,1-1.28.16,1.39,1.39,0,0,1-.57-.39l-36.84-30.53-.1-.09-.08-.06a17.58,17.58,0,0,0-23.13,26.47l79.47,65.87,22.59,17,3,2.27A104.5,104.5,0,0,0,368.09,221.75Z" fill="#fcd550"/></svg>